PathFileType	3	(X/Y/Z)	D:\minhoCalibration\240510\subject5_KPNP\preferred\preferred15.trc
DataRate	CameraRate	NumFrames	NumMarkers	Units	OrigDataRate	OrigDataStartFrame	OrigNumFrames
200.0	200.0	34	10	mm	200.0	260	136	
Frame#	Time	Left_Ankle_Outer1			Left_Ankle_Inner1			Left_Knee_Outer1			Left_Knee_Inner1			Left_Wrist1			Right_Wrist1			Right_Knee_Inner1			Right_Knee_Outer1			Right_Ankle_Inner1			Right_Ankle_Outer1			
		X1	Y1	Z1	X2	Y2	Z2	X3	Y3	Z3	X4	Y4	Z4	X5	Y5	Z5	X6	Y6	Z6	X7	Y7	Z7	X8	Y8	Z8	X9	Y9	Z9	X10	Y10	Z10	
260	1.29	100.38542	75.870834	-601.42438	51.578796	92.099243	-591.22125	228.80692	520.43213	-467.75558	145.00519	509.7037	-425.23898	239.54996	943.76929	-688.68115	81.406883	1181.9351	-511.42072	-91.515022	983.84729	-82.029129	-73.009056	1070.2642	-99.478737	-519.97003	1007.7677	111.99632	-516.3689	1097.5367	66.571114
261	1.295	100.27933	75.72718	-601.69458	51.408176	91.806526	-591.44672	227.93144	520.53265	-467.8681	143.89558	509.63199	-425.62872	238.95323	944.23688	-687.38068	80.241241	1182.3279	-511.17105	-99.080772	986.88458	-85.454872	-79.903076	1072.7266	-103.13509	-501.60342	1016.9232	155.60327	-502.41153	1106.7068	109.4038
262	1.3	100.01493	75.537201	-601.59851	50.99831	91.43306	-591.17737	227.10638	520.6731	-467.8186	142.89281	509.71454	-425.70309	238.32237	944.90857	-685.58447	78.599327	1182.7791	-510.81693	-108.48888	990.56403	-89.202652	-87.456207	1075.7103	-107.33105	-476.22916	1025.9723	194.4343	-484.11618	1113.5645	149.14392
263	1.305	99.888206	75.563835	-601.65399	51.069767	91.488251	-591.51819	226.16763	520.83459	-467.68799	142.02835	509.71115	-425.66971	237.76732	945.72534	-683.4812	76.539268	1183.4001	-510.24127	-117.62692	995.30157	-92.388847	-95.048286	1080.2511	-111.45319	-449.92935	1029.3873	225.81371	-460.72208	1116.8751	183.99341
264	1.31	99.719528	75.469826	-601.63849	50.91431	91.456718	-591.51971	225.3226	521.01141	-467.43246	141.311	509.737	-425.48557	236.90993	946.64642	-680.72394	73.916733	1183.9844	-508.73141	-126.12527	1000.8013	-94.875237	-101.57521	1086.9879	-113.97552	-430.93134	1029.6398	238.9144	-441.58124	1120.837	198.88387
265	1.315	100.01426	75.594536	-602.12805	50.806084	91.361717	-591.45679	224.31709	521.30255	-467.11536	140.55345	509.73529	-425.03851	235.91331	947.75671	-677.29236	71.713509	1184.5785	-507.86954	-129.35768	1007.4259	-93.797241	-104.84242	1093.8823	-113.45064	-423.00211	1029.1071	239.76756	-437.26251	1121.2415	204.97656
266	1.32	99.954048	75.598343	-601.89276	50.752232	91.425987	-591.2323	223.16751	521.62109	-466.71317	139.44618	509.65863	-424.10648	234.86617	948.44269	-673.58881	68.79171	1185.1942	-505.84668	-126.88448	1014.9007	-89.324738	-104.44202	1100.7117	-110.66179	-424.66302	1026.3784	244.33182	-437.47055	1119.649	207.64906
267	1.325	100.23141	75.732918	-601.81476	51.08033	91.537529	-591.508	221.57693	522.01068	-465.78564	138.07967	509.58939	-423.09393	233.73187	948.67346	-670.00409	66.287552	1185.6053	-504.91928	-123.7826	1020.3387	-85.849419	-103.61897	1105.4711	-107.98406	-427.13187	1024.2344	243.49402	-442.28421	1117.1101	205.74167
268	1.33	100.57802	76.006363	-601.72437	51.01017	91.405678	-591.08667	219.78723	522.52844	-464.4404	136.25494	509.59247	-421.79053	233.07893	949.19116	-666.83728	62.75613	1185.8264	-503.01199	-121.55566	1023.3966	-84.382957	-104.61288	1108.7965	-106.64614	-427.4458	1022.0662	240.45157	-449.35126	1112.6583	202.76765
269	1.335	101.1759	76.370087	-601.73053	51.350933	91.83963	-590.86804	217.89163	522.96967	-462.55493	134.00215	509.76657	-420.27634	232.77832	949.85529	-663.84491	59.393642	1185.8824	-502.11691	-119.5319	1025.8547	-82.936401	-106.39383	1110.7748	-105.49817	-429.72476	1020.2307	238.45747	-455.77371	1108.2887	200.88649
270	1.34	101.21886	76.631538	-601.09674	51.843273	91.930489	-591.02264	215.57184	523.4704	-460.27429	131.38458	509.84055	-418.89221	232.48445	950.48871	-660.84045	55.622368	1186.068	-501.57965	-119.79182	1028.304	-82.340912	-108.16199	1112.4141	-104.64494	-434.64658	1016.3923	240.88617	-460.34241	1105.0658	199.63014
271	1.345	101.7117	77.056381	-600.66553	52.191963	92.196617	-591.08356	212.69891	523.98822	-457.68454	128.41013	510.07462	-417.59705	232.20833	951.1228	-657.94672	52.934914	1185.8789	-502.0784	-121.99126	1030.7552	-82.630058	-109.68631	1114.1179	-104.44287	-438.01184	1012.579	235.87901	-464.44775	1101.5327	198.46773
272	1.35	102.23779	77.677628	-600.15234	52.443623	92.335098	-591.14471	209.73474	524.68768	-455.37692	124.95356	510.33588	-416.40427	232.07037	951.6474	-655.16046	49.384266	1186.0493	-502.97357	-126.17382	1032.481	-83.250694	-111.83263	1115.3408	-105.07083	-439.80231	1008.941	232.50667	-468.60077	1097.2257	197.29781
273	1.355	102.51641	78.279846	-599.70654	52.414368	92.635269	-591.08917	206.34633	525.48187	-453.04233	121.0856	510.64914	-415.54828	231.73615	952.02856	-652.45953	46.368473	1186.9038	-503.93188	-131.30904	1033.2885	-84.385239	-115.53572	1116.3479	-106.29248	-441.43622	1005.2366	231.92757	-473.03564	1091.8977	196.34254
274	1.36	102.37695	78.777336	-599.10919	52.361862	92.74543	-591.38727	202.8383	526.24384	-451.05139	116.9516	511.17825	-415.08685	231.52632	952.24402	-649.74567	43.910587	1187.9272	-505.42831	-135.82732	1033.8043	-86.011566	-120.75585	1117.2083	-107.96059	-442.8063	1001.8849	234.24622	-477.24911	1086.5205	195.77621
275	1.365	101.80007	79.141373	-598.61139	51.67997	92.732208	-591.14136	199.09665	527.15723	-449.2988	112.68353	511.75876	-414.94006	231.14049	952.23535	-647.13141	41.907265	1188.8757	-506.92575	-139.58153	1034.1771	-87.920448	-126.97078	1118.2902	-110.41094	-443.82132	998.30182	233.26125	-481.11209	1081.2654	195.2766
276	1.37	101.0119	79.453629	-598.21143	50.671589	92.590805	-591.26398	195.19476	527.92664	-447.81061	108.20351	512.34021	-415.06726	230.85838	952.11133	-644.54163	39.969765	1189.9795	-508.25058	-143.14621	1034.6093	-89.479813	-134.99915	1119.3672	-113.49815	-444.72787	995.52094	235.17369	-484.66528	1075.8984	194.6684
277	1.375	99.417206	79.320839	-597.64111	49.149139	92.234154	-591.41107	191.21294	528.43994	-446.67303	103.73812	512.83917	-415.52417	230.62004	951.91162	-641.94934	38.777912	1190.7949	-509.50641	-145.761	1035.0585	-90.554413	-143.70961	1119.8209	-117.37679	-445.27594	992.84442	237.19554	-487.94659	1069.8719	193.9679
278	1.38	97.127991	79.25399	-597.45081	47.332466	91.904282	-591.86438	187.34253	528.65314	-445.8555	99.46843	513.35394	-416.41742	230.13858	951.35364	-639.30969	37.43185	1192.0131	-510.51898	-148.41977	1035.4636	-91.056213	-153.1046	1118.8242	-121.47045	-445.40344	989.3067	238.30405	-491.2258	1063.3527	193.33231
279	1.385	94.618477	79.312393	-597.80505	43.722679	91.053978	-591.02838	183.89789	528.66565	-445.46921	95.483177	513.58087	-417.51849	229.74435	950.75763	-636.66846	36.790466	1192.7323	-511.707	-150.64816	1035.8143	-91.238327	-161.81798	1117.348	-125.55573	-445.07104	985.33154	239.47488	-494.17432	1056.0333	192.87047
280	1.39	90.882538	78.833847	-597.74493	40.309193	90.710808	-591.34229	180.50372	528.27789	-445.31668	91.805153	513.69006	-418.66736	229.49446	950.09583	-634.07941	36.0816	1193.298	-512.68671	-152.79353	1036.5138	-91.51506	-169.8064	1115.1396	-129.34778	-444.30481	981.0274	240.45436	-496.72351	1048.0851	192.54044
281	1.395	86.768234	78.341919	-597.90973	36.994171	89.24015	-590.72485	177.71425	527.71509	-445.67746	88.645172	513.31586	-419.87427	229.6319	949.52325	-631.76617	34.504341	1193.2113	-513.21344	-155.48233	1036.599	-91.960899	-176.8054	1112.6718	-132.66371	-443.32367	976.30383	241.29051	-498.91254	1039.6603	192.32318
282	1.4	82.848801	77.639343	-598.29462	32.871059	88.442528	-590.61725	174.43452	526.68481	-446.02139	85.848167	512.87408	-421.18576	229.93732	949.11743	-629.54407	33.38385	1193.1021	-513.88519	-158.10471	1036.4923	-92.847099	-183.07637	1109.9031	-135.63766	-442.42542	971.17529	241.80576	-500.71048	1030.9064	192.03706
283	1.405	79.910217	77.153687	-598.99005	30.000172	86.806038	-590.70892	171.91911	525.64325	-447.00119	82.809387	511.93301	-422.80612	230.37534	948.9007	-627.42743	32.283695	1191.8724	-514.79633	-161.49304	1035.2401	-94.03907	-188.7292	1106.6455	-138.20799	-441.79291	965.60651	242.05283	-502.40369	1022.1179	191.541
284	1.41	78.881058	76.498405	-599.68909	28.551867	85.225082	-590.91473	169.61423	524.59192	-448.35324	80.323242	510.99496	-424.02728	230.87067	948.88202	-625.38483	29.93672	1191.0017	-514.93335	-164.28555	1033.0726	-94.823418	-194.28679	1102.983	-140.39085	-441.48868	959.45123	241.87149	-504.09354	1013.3069	190.87537
285	1.415	78.928101	75.394867	-599.73895	28.764446	84.306984	-591.63477	167.81558	523.52057	-449.99136	78.066505	509.83948	-425.30414	231.3119	949.04175	-623.37109	27.598898	1189.5344	-515.23224	-168.17587	1029.5846	-96.589401	-199.48782	1098.8158	-142.32329	-441.53561	952.69232	241.15016	-505.77432	1004.3604	189.94406
286	1.42	79.814682	74.777908	-599.93219	29.677919	83.884789	-592.5213	166.55269	522.83667	-451.23169	76.045944	508.64691	-426.47876	231.81044	949.39514	-621.46082	25.068832	1187.486	-516.13226	-172.09105	1025.5675	-98.564926	-204.47398	1094.2523	-144.21317	-441.97491	945.3222	239.96196	-507.51477	995.19177	188.75342
287	1.425	80.363861	74.496841	-599.84625	30.241194	84.020157	-592.82971	166.07373	522.39691	-451.84552	74.87355	507.62106	-427.54633	232.35173	950.07849	-619.60962	21.822632	1186.2341	-516.39819	-176.19264	1021.0502	-101.03494	-209.13588	1089.35	-146.04674	-442.73822	937.31061	238.34224	-509.29541	985.85742	187.23259
288	1.43	80.737068	74.642494	-599.61523	30.713825	84.322258	-592.85498	166.30043	522.15863	-451.93768	74.881706	506.95187	-428.42786	232.86501	950.93182	-617.81744	18.339491	1184.7886	-516.96265	-179.10587	1015.9279	-103.35014	-213.54926	1084.4122	-147.9095	-444.1394	928.91821	236.56291	-511.09113	976.13983	185.39101
289	1.435	81.017982	74.924774	-599.37097	30.770754	84.620354	-592.52771	166.80235	522.42181	-451.75098	75.462967	507.21902	-429.13098	233.35397	951.9776	-615.99146	15.150565	1183.0554	-517.8407	-182.72055	1010.3731	-106.05475	-217.46521	1079.4152	-149.67229	-445.29852	919.46368	234.2328	-512.92401	966.05426	183.21904
290	1.44	81.37571	75.298058	-599.03802	31.264118	85.08963	-592.40912	167.99928	522.97784	-452.22131	76.717468	507.85501	-429.83777	233.95996	953.19995	-614.23792	11.866911	1181.6702	-518.78571	-186.41226	1004.5205	-108.81596	-221.04918	1074.1951	-151.48509	-446.38339	909.30353	230.66376	-514.90601	955.40649	180.56894
291	1.445	82.152016	75.493332	-599.21704	32.022655	85.32312	-592.94733	169.06395	523.68396	-452.64142	78.048302	509.04102	-430.42285	234.61969	954.60413	-612.55524	8.0460358	1180.2772	-519.56128	-189.61815	998.33038	-111.80439	-224.08394	1068.8984	-153.40341	-447.8739	898.4361	227.3541	-517.02441	944.31836	177.48434
292	1.45	82.490929	75.32151	-598.76849	33.053036	85.314026	-592.56873	170.32933	524.31116	-453.44287	79.612434	510.07343	-431.18604	235.21013	955.9718	-610.92633	4.7084203	1179.1273	-520.53809	-192.44734	992.21265	-114.80688	-226.79738	1063.17	-155.4128	-449.66409	887.1676	223.89363	-519.18915	932.67957	173.86191
293	1.455	83.783333	75.188217	-599.18188	33.753475	85.728531	-593.11365	171.55318	524.69824	-454.33786	81.197861	510.80292	-431.97543	235.9037	957.37341	-609.2984	1.9461141	1177.9747	-521.92133	-195.09494	985.93549	-117.73794	-229.92162	1057.3406	-157.43973	-451.28317	874.91931	219.22569	-521.61395	920.61249	169.76129
